<?xml version="1.0" encoding="UTF-8" standalone="no"?>
<!-- Generator: Adobe Illustrator 18.0.0, SVG Export Plug-In . SVG Version: 6.00 Build 0)  -->

<svg
   xmlns:dc="http://purl.org/dc/elements/1.1/"
   xmlns:cc="http://creativecommons.org/ns#"
   xmlns:rdf="http://www.w3.org/1999/02/22-rdf-syntax-ns#"
   xmlns:svg="http://www.w3.org/2000/svg"
   xmlns="http://www.w3.org/2000/svg"
   xmlns:sodipodi="http://sodipodi.sourceforge.net/DTD/sodipodi-0.dtd"
   xmlns:inkscape="http://www.inkscape.org/namespaces/inkscape"
   version="1.1"
   id="Capa_1"
   x="0px"
   y="0px"
   viewBox="0 0 457.32 457.32"
   style="enable-background:new 0 0 457.32 457.32;"
   xml:space="preserve"
   sodipodi:docname="sun.svg"
   inkscape:version="0.92.4 (5da689c313, 2019-01-14)"><metadata
   id="metadata4596"><rdf:RDF><cc:Work
       rdf:about=""><dc:format>image/svg+xml</dc:format><dc:type
         rdf:resource="http://purl.org/dc/dcmitype/StillImage" /></cc:Work></rdf:RDF></metadata><defs
   id="defs4594" /><sodipodi:namedview
   pagecolor="#ffffff"
   bordercolor="#666666"
   borderopacity="1"
   objecttolerance="10"
   gridtolerance="10"
   guidetolerance="10"
   inkscape:pageopacity="0"
   inkscape:pageshadow="2"
   inkscape:window-width="1920"
   inkscape:window-height="1017"
   id="namedview4592"
   showgrid="false"
   inkscape:zoom="1.8586547"
   inkscape:cx="228.66"
   inkscape:cy="250.18095"
   inkscape:window-x="1432"
   inkscape:window-y="-8"
   inkscape:window-maximized="1"
   inkscape:current-layer="Capa_1" />
<g
   id="XMLID_467_">
	
	<path
   id="XMLID_1397_"
   d="M401.429,228.66l42.467-57.07c2.903-3.9,3.734-8.966,2.232-13.59c-1.503-4.624-5.153-8.233-9.794-9.683   l-67.901-21.209l0.811-71.132c0.056-4.862-2.249-9.449-6.182-12.307c-3.934-2.858-9.009-3.633-13.615-2.077l-67.399,22.753   L240.895,6.322C238.082,2.356,233.522,0,228.66,0c-4.862,0-9.422,2.356-12.235,6.322l-41.154,58.024l-67.4-22.753   c-4.607-1.555-9.682-0.781-13.615,2.077c-3.933,2.858-6.238,7.445-6.182,12.307l0.812,71.132l-67.901,21.209   c-4.641,1.45-8.291,5.059-9.793,9.683c-1.503,4.624-0.671,9.689,2.232,13.59l42.467,57.07l-42.467,57.07   c-2.903,3.9-3.734,8.966-2.232,13.59c1.502,4.624,5.153,8.233,9.793,9.683l67.901,21.208l-0.812,71.132   c-0.056,4.862,2.249,9.449,6.182,12.307c3.934,2.857,9.007,3.632,13.615,2.077l67.4-22.753l41.154,58.024   c2.813,3.966,7.373,6.322,12.235,6.322c4.862,0,9.422-2.356,12.235-6.322l41.154-58.024l67.399,22.753   c4.606,1.555,9.681,0.781,13.615-2.077c3.933-2.858,6.238-7.445,6.182-12.306l-0.811-71.133l67.901-21.208   c4.641-1.45,8.291-5.059,9.794-9.683c1.502-4.624,0.671-9.689-2.232-13.59L401.429,228.66z M228.66,374.627   c-80.487,0-145.968-65.481-145.968-145.968S148.173,82.692,228.66,82.692s145.968,65.48,145.968,145.967   S309.147,374.627,228.66,374.627z" />
</g>
<g
   id="g4561">
</g>
<g
   id="g4563">
</g>
<g
   id="g4565">
</g>
<g
   id="g4567">
</g>
<g
   id="g4569">
</g>
<g
   id="g4571">
</g>
<g
   id="g4573">
</g>
<g
   id="g4575">
</g>
<g
   id="g4577">
</g>
<g
   id="g4579">
</g>
<g
   id="g4581">
</g>
<g
   id="g4583">
</g>
<g
   id="g4585">
</g>
<g
   id="g4587">
</g>
<g
   id="g4589">
</g>
</svg>